# xmcd
# 
# Track frame offsets:
#     182
#     30527
#     63430
#     93592
#     113937
#     132270
#     161705
#     191355
#     220860
#     237547
#     263522
# 
# Disc length: 4094
# 
# Revision: 2
# Processed by: cddbd v1.5.2PL0 Copyright (c) Steve Scherf et al.
# Submitted via: BonkEnc v1.0beta4
# 
DISCID=980ffc0b
DTITLE=Maxime Saury - Live Au Caveau De La Huchette
DYEAR=0
DGENRE=Jazz+Funk
TTITLE0=Way down yonder in new orleans
TTITLE1=Mister new orleans blues
TTITLE2=Lime house blues
TTITLE3=If you see comin'
TTITLE4=Rencontre
TTITLE5=Tishomingo blues
TTITLE6=Tea for two
TTITLE7=Black and blue
TTITLE8=Mister christopher
TTITLE9=Basin street blues
TTITLE10=Saint louis blues
EXTD=
EXTT0=
EXTT1=
EXTT2=
EXTT3=
EXTT4=
EXTT5=
EXTT6=
EXTT7=
EXTT8=
EXTT9=
EXTT10=
PLAYORDER=
